<svg width="233" height="60" viewBox="0 0 233 60" fill="none" xmlns="http://www.w3.org/2000/svg">
<path d="M12.64 44.28C10.5867 44.28 8.74667 43.9467 7.12 43.28C5.49333 42.6133 4.18667 41.6267 3.2 40.32C2.24 39.0133 1.73333 37.44 1.68 35.6H8.96C9.06667 36.64 9.42667 37.44 10.04 38C10.6533 38.5333 11.4533 38.8 12.44 38.8C13.4533 38.8 14.2533 38.5733 14.84 38.12C15.4267 37.64 15.72 36.9867 15.72 36.16C15.72 35.4667 15.48 34.8933 15 34.44C14.5467 33.9867 13.9733 33.6133 13.28 33.32C12.6133 33.0267 11.6533 32.6933 10.4 32.32C8.58667 31.76 7.10667 31.2 5.96 30.64C4.81333 30.08 3.82667 29.2533 3 28.16C2.17333 27.0667 1.76 25.64 1.76 23.88C1.76 21.2667 2.70667 19.2267 4.6 17.76C6.49333 16.2667 8.96 15.52 12 15.52C15.0933 15.52 17.5867 16.2667 19.48 17.76C21.3733 19.2267 22.3867 21.28 22.52 23.92H15.12C15.0667 23.0133 14.7333 22.3067 14.12 21.8C13.5067 21.2667 12.72 21 11.76 21C10.9333 21 10.2667 21.2267 9.76 21.68C9.25333 22.1067 9 22.7333 9 23.56C9 24.4667 9.42667 25.1733 10.28 25.68C11.1333 26.1867 12.4667 26.7333 14.28 27.32C16.0933 27.9333 17.56 28.52 18.68 29.08C19.8267 29.64 20.8133 30.4533 21.64 31.52C22.4667 32.5867 22.88 33.96 22.88 35.64C22.88 37.24 22.4667 38.6933 21.64 40C20.84 41.3067 19.6667 42.3467 18.12 43.12C16.5733 43.8933 14.7467 44.28 12.64 44.28ZM39.5294 38.2V44H36.0494C33.5694 44 31.636 43.4 30.2494 42.2C28.8627 40.9733 28.1694 38.9867 28.1694 36.24V27.36H25.4494V21.68H28.1694V16.24H35.0094V21.68H39.4894V27.36H35.0094V36.32C35.0094 36.9867 35.1694 37.4667 35.4894 37.76C35.8094 38.0533 36.3427 38.2 37.0894 38.2H39.5294ZM65.3794 21.68V44H58.5394V40.96C57.846 41.9467 56.8994 42.7467 55.6994 43.36C54.526 43.9467 53.2194 44.24 51.7794 44.24C50.0727 44.24 48.566 43.8667 47.2594 43.12C45.9527 42.3467 44.9394 41.24 44.2194 39.8C43.4994 38.36 43.1394 36.6667 43.1394 34.72V21.68H49.9394V33.8C49.9394 35.2933 50.326 36.4533 51.0994 37.28C51.8727 38.1067 52.9127 38.52 54.2194 38.52C55.5527 38.52 56.606 38.1067 57.3794 37.28C58.1527 36.4533 58.5394 35.2933 58.5394 33.8V21.68H65.3794ZM68.9325 32.8C68.9325 30.5067 69.3592 28.4933 70.2125 26.76C71.0925 25.0267 72.2792 23.6933 73.7725 22.76C75.2658 21.8267 76.9325 21.36 78.7725 21.36C80.2392 21.36 81.5725 21.6667 82.7725 22.28C83.9992 22.8933 84.9592 23.72 85.6525 24.76V14.4H92.4925V44H85.6525V40.8C85.0125 41.8667 84.0925 42.72 82.8925 43.36C81.7192 44 80.3458 44.32 78.7725 44.32C76.9325 44.32 75.2658 43.8533 73.7725 42.92C72.2792 41.96 71.0925 40.6133 70.2125 38.88C69.3592 37.12 68.9325 35.0933 68.9325 32.8ZM85.6525 32.84C85.6525 31.1333 85.1725 29.7867 84.2125 28.8C83.2792 27.8133 82.1325 27.32 80.7725 27.32C79.4125 27.32 78.2525 27.8133 77.2925 28.8C76.3592 29.76 75.8925 31.0933 75.8925 32.8C75.8925 34.5067 76.3592 35.8667 77.2925 36.88C78.2525 37.8667 79.4125 38.36 80.7725 38.36C82.1325 38.36 83.2792 37.8667 84.2125 36.88C85.1725 35.8933 85.6525 34.5467 85.6525 32.84ZM100.881 19.36C99.6809 19.36 98.6943 19.0133 97.9209 18.32C97.1743 17.6 96.8009 16.72 96.8009 15.68C96.8009 14.6133 97.1743 13.7333 97.9209 13.04C98.6943 12.32 99.6809 11.96 100.881 11.96C102.054 11.96 103.014 12.32 103.761 13.04C104.534 13.7333 104.921 14.6133 104.921 15.68C104.921 16.72 104.534 17.6 103.761 18.32C103.014 19.0133 102.054 19.36 100.881 19.36ZM104.281 21.68V44H97.4409V21.68H104.281ZM119.398 44.32C117.211 44.32 115.238 43.8533 113.478 42.92C111.744 41.9867 110.371 40.6533 109.358 38.92C108.371 37.1867 107.878 35.16 107.878 32.84C107.878 30.5467 108.384 28.5333 109.398 26.8C110.411 25.04 111.798 23.6933 113.558 22.76C115.318 21.8267 117.291 21.36 119.478 21.36C121.664 21.36 123.638 21.8267 125.398 22.76C127.158 23.6933 128.544 25.04 129.558 26.8C130.571 28.5333 131.078 30.5467 131.078 32.84C131.078 35.1333 130.558 37.16 129.518 38.92C128.504 40.6533 127.104 41.9867 125.318 42.92C123.558 43.8533 121.584 44.32 119.398 44.32ZM119.398 38.4C120.704 38.4 121.811 37.92 122.718 36.96C123.651 36 124.118 34.6267 124.118 32.84C124.118 31.0533 123.664 29.68 122.758 28.72C121.878 27.76 120.784 27.28 119.478 27.28C118.144 27.28 117.038 27.76 116.158 28.72C115.278 29.6533 114.838 31.0267 114.838 32.84C114.838 34.6267 115.264 36 116.118 36.96C116.998 37.92 118.091 38.4 119.398 38.4ZM143.787 44.32C141.84 44.32 140.107 43.9867 138.587 43.32C137.067 42.6533 135.867 41.7467 134.987 40.6C134.107 39.4267 133.613 38.12 133.507 36.68H140.267C140.347 37.4533 140.707 38.08 141.347 38.56C141.987 39.04 142.773 39.28 143.707 39.28C144.56 39.28 145.213 39.12 145.667 38.8C146.147 38.4533 146.387 38.0133 146.387 37.48C146.387 36.84 146.053 36.3733 145.387 36.08C144.72 35.76 143.64 35.4133 142.147 35.04C140.547 34.6667 139.213 34.28 138.147 33.88C137.08 33.4533 136.16 32.8 135.387 31.92C134.613 31.0133 134.227 29.8 134.227 28.28C134.227 27 134.573 25.84 135.267 24.8C135.987 23.7333 137.027 22.8933 138.387 22.28C139.773 21.6667 141.413 21.36 143.307 21.36C146.107 21.36 148.307 22.0533 149.907 23.44C151.533 24.8267 152.467 26.6667 152.707 28.96H146.387C146.28 28.1867 145.933 27.5733 145.347 27.12C144.787 26.6667 144.04 26.44 143.107 26.44C142.307 26.44 141.693 26.6 141.267 26.92C140.84 27.2133 140.627 27.6267 140.627 28.16C140.627 28.8 140.96 29.28 141.627 29.6C142.32 29.92 143.387 30.24 144.827 30.56C146.48 30.9867 147.827 31.4133 148.867 31.84C149.907 32.24 150.813 32.9067 151.587 33.84C152.387 34.7467 152.8 35.9733 152.827 37.52C152.827 38.8267 152.453 40 151.707 41.04C150.987 42.0533 149.933 42.8533 148.547 43.44C147.187 44.0267 145.6 44.32 143.787 44.32ZM160.451 19.36C159.251 19.36 158.265 19.0133 157.491 18.32C156.745 17.6 156.371 16.72 156.371 15.68C156.371 14.6133 156.745 13.7333 157.491 13.04C158.265 12.32 159.251 11.96 160.451 11.96C161.625 11.96 162.585 12.32 163.331 13.04C164.105 13.7333 164.491 14.6133 164.491 15.68C164.491 16.72 164.105 17.6 163.331 18.32C162.585 19.0133 161.625 19.36 160.451 19.36ZM163.851 21.68V44H157.011V21.68H163.851ZM175.648 24.84C176.315 23.8 177.235 22.96 178.408 22.32C179.581 21.68 180.955 21.36 182.528 21.36C184.368 21.36 186.035 21.8267 187.528 22.76C189.021 23.6933 190.195 25.0267 191.048 26.76C191.928 28.4933 192.368 30.5067 192.368 32.8C192.368 35.0933 191.928 37.12 191.048 38.88C190.195 40.6133 189.021 41.96 187.528 42.92C186.035 43.8533 184.368 44.32 182.528 44.32C180.981 44.32 179.608 44 178.408 43.36C177.235 42.72 176.315 41.8933 175.648 40.88V54.64H168.808V21.68H175.648V24.84ZM185.408 32.8C185.408 31.0933 184.928 29.76 183.968 28.8C183.035 27.8133 181.875 27.32 180.488 27.32C179.128 27.32 177.968 27.8133 177.008 28.8C176.075 29.7867 175.608 31.1333 175.608 32.84C175.608 34.5467 176.075 35.8933 177.008 36.88C177.968 37.8667 179.128 38.36 180.488 38.36C181.848 38.36 183.008 37.8667 183.968 36.88C184.928 35.8667 185.408 34.5067 185.408 32.8ZM217.997 21.68V44H211.157V40.96C210.463 41.9467 209.517 42.7467 208.317 43.36C207.143 43.9467 205.837 44.24 204.397 44.24C202.69 44.24 201.183 43.8667 199.877 43.12C198.57 42.3467 197.557 41.24 196.837 39.8C196.117 38.36 195.757 36.6667 195.757 34.72V21.68H202.557V33.8C202.557 35.2933 202.943 36.4533 203.717 37.28C204.49 38.1067 205.53 38.52 206.837 38.52C208.17 38.52 209.223 38.1067 209.997 37.28C210.77 36.4533 211.157 35.2933 211.157 33.8V21.68H217.997ZM229.75 14.4V44H222.91V14.4H229.75Z" fill="#3B82F6"/>
</svg>
